# xmcd
#
# Track frame offsets:
#	150
#	14611
#	30352
#	48386
#	63086
#	78883
#	94371
#	111830
#	129869
#	146732
#	162314
#	179290
#
# Disc length: 2498 seconds
#
# Revision: 0
# Processed by: cddbd v1.5.2PL0 Copyright (c) Steve Scherf et al.
# Submitted via: EasyCDDAExtractor 16.0.8.2
#
DISCID=9609c00c
DTITLE=Συλλογικός δίσκος - Στης Ξανθής, Αιγινήτειο, ΑΓ Κως-LP, Οπισθοδρ. κομπα
DTITLE=νία
DYEAR=1982
DGENRE=Ποικίλη
TTITLE0=Στρατηγόπουλος Στράτος-Αρβανιτάκη Ελευθερία - Δεν σ' αγαπώ, σε μίσησα 
TTITLE0=[Γ. Παπαϊωάννου]
TTITLE1=Εμμανουηλίδης Γιάννης-Αρβανιτάκη Ελευθερία - Η πεντάμορφη [Α. Χατζηχρή
TTITLE1=στου-Χ. Βασιλειάδη]
TTITLE2=Εμμανουηλίδης Γιάννης-Αρβανιτάκη Ελευθερία - Το νυχτοπούλι [Α. Χατζηχρ
TTITLE2=ήστου]
TTITLE3=Εμμανουηλίδης Γιάννης - Ήσουνα ξυπόλητη [παραδοσιακό]
TTITLE4=Σφακιανάκης Άγγελος - Η γόπα [Χ. Ταμβάκη]
TTITLE5=Αρβανιτάκη Ελευθερία-Στρατηγόπουλος Στρ. - Γλυκοβραδιάζει [Α. Χατζηχρή
TTITLE5=στου]
TTITLE6=Καρελάς Λάμπρος-Αρβανιτάκη Ελευθερία - Οι γλάροι [Ν. Μεϊμάρη-Χ. Βασιλε
TTITLE6=ιάδη]
TTITLE7=Αρβανιτάκη Ελευθερία - Η Σεράχ [Β. Τσιτσάνη]
TTITLE8=Αρβανιτάκη Ελευθερία-Στρατηγόπουλος Στρ. - Άναψε το τσιγάρο[Γ.Κλουβάτο
TTITLE8=υ-Σ.Περιστέρη-ΧΒασιλειάδη]
TTITLE9=Καρελάς Λάμπρος - Δυό πόρτες έχει η ζωή [Σ. Καζαντζίδη]
TTITLE10=Καρελάς Λάμπρος - Έξω ντέρτια και καημοί [Σ. Καζαντζίδη]
TTITLE11=Στρατηγόπουλος Στράτος - Παντρεμένοι κι οι δυό [Μ. Χριστοδουλόπουλου]
EXTD=
EXTT0=
EXTT1=
EXTT2=
EXTT3=
EXTT4=
EXTT5=
EXTT6=
EXTT7=
EXTT8=
EXTT9=
EXTT10=
EXTT11=
PLAYORDER=
